<svg width="60" height="60" viewBox="0 0 60 60" fill="none" xmlns="http://www.w3.org/2000/svg">
<path d="M25 40H35C36.375 40 37.5 38.875 37.5 37.5V25H41.475C43.7 25 44.825 22.3 43.25 20.725L31.775 9.25003C31.5437 9.01827 31.269 8.8344 30.9666 8.70895C30.6641 8.5835 30.3399 8.51892 30.0125 8.51892C29.6851 8.51892 29.3609 8.5835 29.0584 8.70895C28.756 8.8344 28.4813 9.01827 28.25 9.25003L16.775 20.725C15.2 22.3 16.3 25 18.525 25H22.5V37.5C22.5 38.875 23.625 40 25 40ZM15 45H45C46.375 45 47.5 46.125 47.5 47.5C47.5 48.875 46.375 50 45 50H15C13.625 50 12.5 48.875 12.5 47.5C12.5 46.125 13.625 45 15 45Z" fill="#F8F8F8"/>
</svg>
